<svg id="Layer_1" data-name="Layer 1" xmlns="http://www.w3.org/2000/svg" viewBox="0 0 439.86 281.81"><defs><style>.cls-1{font-size:48px;font-family:SignikaNegative-Bold, Signika Negative;font-weight:700;}.cls-2{stroke:#000;stroke-miterlimit:10;}</style></defs><title>okdrop</title><text class="cls-1" transform="translate(28.56 267.99)">OKANAGAN DROP</text><path class="cls-2" d="M260.39,218.43q-16.12,0-16.12,28.38t16.12,28.38q16.13,0,16.13-28.38T260.39,218.43Z" transform="translate(-36.07 -144.57)"/><path class="cls-2" d="M251,149.17l-84.21,84.21a14,14,0,0,0,0,19.8L251,337.38a14,14,0,0,0,19.8,0l84.2-84.2a14,14,0,0,0,0-19.8l-84.2-84.21A14,14,0,0,0,251,149.17Zm31.82,132.57q-9.17,7.49-22.37,7.49t-22.37-7.49q-12.74-10.59-12.73-34.93t12.73-34.93q9.16-7.49,22.37-7.49t22.37,7.49q12.74,10.6,12.74,34.93T282.82,281.74Z" transform="translate(-36.07 -144.57)"/></svg>